<?xml version="1.0"?>
<!DOCTYPE svg PUBLIC "-//W3C//DTD SVG 1.1//EN" "http://www.w3.org/Graphics/SVG/1.1/DTD/svg11.dtd">
<svg width="70.0mm" height="70.0mm" viewBox="-35.000000 -35.000000 70.000000 70.000000" xmlns="http://www.w3.org/2000/svg" version="1.1">
<g id="Cut009" transform="scale(1,-1)">
<circle cx="0.0" cy="0.0" r="35.0" stroke="#191919" stroke-width="0.35 px" style="stroke-width:0.35;stroke-miterlimit:4;stroke-dasharray:none;fill:#cccccc"/>
<circle cx="0.0" cy="0.0" r="35.0" stroke="#191919" stroke-width="0.35 px" style="stroke-width:0.35;stroke-miterlimit:4;stroke-dasharray:none;fill:#cccccc"/>
<circle cx="0.0" cy="0.0" r="35.0" stroke="#191919" stroke-width="0.35 px" style="stroke-width:0.35;stroke-miterlimit:4;stroke-dasharray:none;fill:#cccccc"/>
<path id="Cut009_f0003"  d="M -30.5 4.5 L -33.5 4.5 L -33.5 4.5 L -30.5 4.5 L -30.5 4.5 Z " stroke="#191919" stroke-width="0.35 px" style="stroke-width:0.35;stroke-miterlimit:4;stroke-dasharray:none;fill:#cccccc;fill-rule: evenodd "/>
<path id="Cut009_f0004"  d="M -30.5 4.5 L -30.5 4.5 L -30.5 -4.5 L -30.5 -4.5 L -30.5 4.5 Z " stroke="#191919" stroke-width="0.35 px" style="stroke-width:0.35;stroke-miterlimit:4;stroke-dasharray:none;fill:#cccccc;fill-rule: evenodd "/>
<path id="Cut009_f0005"  d="M -33.5 -4.5 L -33.5 -4.5 L -33.5 4.5 L -33.5 4.5 L -33.5 -4.5 Z " stroke="#191919" stroke-width="0.35 px" style="stroke-width:0.35;stroke-miterlimit:4;stroke-dasharray:none;fill:#cccccc;fill-rule: evenodd "/>
<path id="Cut009_f0006"  d="M -30.5 -4.5 L -33.5 -4.5 L -33.5 -4.5 L -30.5 -4.5 L -30.5 -4.5 Z " stroke="#191919" stroke-width="0.35 px" style="stroke-width:0.35;stroke-miterlimit:4;stroke-dasharray:none;fill:#cccccc;fill-rule: evenodd "/>
<circle cx="0.0" cy="0.0" r="29.0" stroke="#191919" stroke-width="0.35 px" style="stroke-width:0.35;stroke-miterlimit:4;stroke-dasharray:none;fill:#cccccc"/>
<path id="Cut009_f0008"  d="M 33.5 4.5 L 33.5 4.5 L 33.5 -4.5 L 33.5 -4.5 L 33.5 4.5 Z " stroke="#191919" stroke-width="0.35 px" style="stroke-width:0.35;stroke-miterlimit:4;stroke-dasharray:none;fill:#cccccc;fill-rule: evenodd "/>
<path id="Cut009_f0009"  d="M 33.5 4.5 L 30.5 4.5 L 30.5 4.5 L 33.5 4.5 L 33.5 4.5 Z " stroke="#191919" stroke-width="0.35 px" style="stroke-width:0.35;stroke-miterlimit:4;stroke-dasharray:none;fill:#cccccc;fill-rule: evenodd "/>
<path id="Cut009_f0010"  d="M 33.5 -4.5 L 30.5 -4.5 L 30.5 -4.5 L 33.5 -4.5 L 33.5 -4.5 Z " stroke="#191919" stroke-width="0.35 px" style="stroke-width:0.35;stroke-miterlimit:4;stroke-dasharray:none;fill:#cccccc;fill-rule: evenodd "/>
<path id="Cut009_f0011"  d="M 30.5 -4.5 L 30.5 -4.5 L 30.5 4.5 L 30.5 4.5 L 30.5 -4.5 Z " stroke="#191919" stroke-width="0.35 px" style="stroke-width:0.35;stroke-miterlimit:4;stroke-dasharray:none;fill:#cccccc;fill-rule: evenodd "/>
<path id="Cut009_f0012"  d="M 4.5 33.5 L 4.5 33.5 L 4.5 30.5 L 4.5 30.5 L 4.5 33.5 Z " stroke="#191919" stroke-width="0.35 px" style="stroke-width:0.35;stroke-miterlimit:4;stroke-dasharray:none;fill:#cccccc;fill-rule: evenodd "/>
<path id="Cut009_f0013"  d="M 4.5 33.5 L -4.5 33.5 L -4.5 33.5 L 4.5 33.5 L 4.5 33.5 Z " stroke="#191919" stroke-width="0.35 px" style="stroke-width:0.35;stroke-miterlimit:4;stroke-dasharray:none;fill:#cccccc;fill-rule: evenodd "/>
<path id="Cut009_f0014"  d="M 4.5 30.5 L -4.5 30.5 L -4.5 30.5 L 4.5 30.5 L 4.5 30.5 Z " stroke="#191919" stroke-width="0.35 px" style="stroke-width:0.35;stroke-miterlimit:4;stroke-dasharray:none;fill:#cccccc;fill-rule: evenodd "/>
<path id="Cut009_f0015"  d="M -4.5 30.5 L -4.5 30.5 L -4.5 33.5 L -4.5 33.5 L -4.5 30.5 Z " stroke="#191919" stroke-width="0.35 px" style="stroke-width:0.35;stroke-miterlimit:4;stroke-dasharray:none;fill:#cccccc;fill-rule: evenodd "/>
<path id="Cut009_f0016"  d="M 4.5 -30.5 L 4.5 -30.5 L 4.5 -33.5 L 4.5 -33.5 L 4.5 -30.5 Z " stroke="#191919" stroke-width="0.35 px" style="stroke-width:0.35;stroke-miterlimit:4;stroke-dasharray:none;fill:#cccccc;fill-rule: evenodd "/>
<path id="Cut009_f0017"  d="M 4.5 -30.5 L -4.5 -30.5 L -4.5 -30.5 L 4.5 -30.5 L 4.5 -30.5 Z " stroke="#191919" stroke-width="0.35 px" style="stroke-width:0.35;stroke-miterlimit:4;stroke-dasharray:none;fill:#cccccc;fill-rule: evenodd "/>
<path id="Cut009_f0018"  d="M -4.5 -33.5 L -4.5 -33.5 L -4.5 -30.5 L -4.5 -30.5 L -4.5 -33.5 Z " stroke="#191919" stroke-width="0.35 px" style="stroke-width:0.35;stroke-miterlimit:4;stroke-dasharray:none;fill:#cccccc;fill-rule: evenodd "/>
<path id="Cut009_f0019"  d="M 4.5 -33.5 L -4.5 -33.5 L -4.5 -33.5 L 4.5 -33.5 L 4.5 -33.5 Z " stroke="#191919" stroke-width="0.35 px" style="stroke-width:0.35;stroke-miterlimit:4;stroke-dasharray:none;fill:#cccccc;fill-rule: evenodd "/>
<title>RingMiddle</title>
</g>
</svg>