<?xml version="1.0" encoding="UTF-8" standalone="no"?>
<!-- Created with Inkscape (http://www.inkscape.org/) -->

<svg
   xmlns:dc="http://purl.org/dc/elements/1.1/"
   xmlns:cc="http://creativecommons.org/ns#"
   xmlns:rdf="http://www.w3.org/1999/02/22-rdf-syntax-ns#"
   xmlns:svg="http://www.w3.org/2000/svg"
   xmlns="http://www.w3.org/2000/svg"
   xmlns:sodipodi="http://sodipodi.sourceforge.net/DTD/sodipodi-0.dtd"
   xmlns:inkscape="http://www.inkscape.org/namespaces/inkscape"
   version="1.0"
   width="750"
   height="900"
   viewBox="0 0 750 900"
   id="Layer_1"
   xml:space="preserve"
   inkscape:version="0.91 r13725"
   sodipodi:docname="Alien01.svg"><metadata
     id="metadata8"><rdf:RDF><cc:Work
         rdf:about=""><dc:format>image/svg+xml</dc:format><dc:type
           rdf:resource="http://purl.org/dc/dcmitype/StillImage" /></cc:Work></rdf:RDF></metadata><sodipodi:namedview
     pagecolor="#ffffff"
     bordercolor="#666666"
     borderopacity="1"
     objecttolerance="10"
     gridtolerance="10"
     guidetolerance="10"
     inkscape:pageopacity="0"
     inkscape:pageshadow="2"
     inkscape:window-width="1440"
     inkscape:window-height="838"
     id="namedview6"
     showgrid="false"
     inkscape:zoom="0.74167645"
     inkscape:cx="399.8166"
     inkscape:cy="436.90596"
     inkscape:window-x="-8"
     inkscape:window-y="-8"
     inkscape:window-maximized="1"
     inkscape:current-layer="Layer_1" /><defs
     id="defs11" /><g
     id="g4145"
     transform="translate(-98.425669,-231.90705)"><path
       d="m 465.44809,400.31811 c -72.22145,0 -171.92112,45.57005 -171.92112,164.1397 0,0.38908 0,0.82678 0,1.21585 0.82678,118.03468 120.90408,264.08252 171.92112,264.08252 51.21159,0 171.92113,-146.72871 171.92113,-265.29837 0,-118.56965 -99.69967,-164.1397 -171.92113,-164.1397 z M 310.79203,574.91412 c 84.1368,0 144.92928,59.33345 144.92928,148.33364 -88.02752,0 -144.92928,-56.90176 -144.92928,-148.33364 z m 312.23016,0 c 0,91.43188 -58.06897,148.33364 -147.84731,148.33364 0,-89.00019 62.00835,-148.33364 147.84731,-148.33364 z"
       id="path4"
       inkscape:connector-curvature="0" /><g
       id="g4141"><circle
         style="fill:none;stroke:#ff0000;stroke-width:30;stroke-miterlimit:4;stroke-dasharray:none;stroke-opacity:1"
         id="path4137"
         cx="465.72748"
         cy="608.20276"
         r="250" /><path
         style="fill:none;fill-rule:evenodd;stroke:#ff0000;stroke-width:30;stroke-linecap:butt;stroke-linejoin:miter;stroke-miterlimit:4;stroke-dasharray:none;stroke-opacity:1"
         d="M 289.88382,773.2601 C 633.69951,425.39952 633.69951,425.39952 633.69951,425.39952"
         id="path4139"
         inkscape:connector-curvature="0" /></g></g></svg>